<svg xmlns="http://www.w3.org/2000/svg" xmlns:xlink="http://www.w3.org/1999/xlink" width="250" zoomAndPan="magnify" viewBox="0 0 187.5 37.5" height="50" preserveAspectRatio="xMidYMid meet" version="1.0"><defs><g/><clipPath id="3e704a0565"><path d="M 96.105469 5.894531 L 182.1875 5.894531 L 182.1875 31.109375 L 96.105469 31.109375 Z M 96.105469 5.894531 " clip-rule="nonzero"/></clipPath><clipPath id="5deeda8f80"><path d="M 102.960938 5.894531 L 181.28125 5.894531 C 181.535156 5.894531 181.769531 6.011719 181.925781 6.207031 C 182.082031 6.402344 182.140625 6.660156 182.082031 6.90625 L 176.636719 30.101562 C 176.5 30.691406 175.972656 31.109375 175.363281 31.109375 L 97.042969 31.109375 C 96.792969 31.109375 96.554688 30.996094 96.398438 30.800781 C 96.242188 30.601562 96.183594 30.347656 96.242188 30.101562 L 101.6875 6.90625 C 101.828125 6.3125 102.355469 5.894531 102.960938 5.894531 Z M 102.960938 5.894531 " clip-rule="nonzero"/></clipPath></defs><g clip-path="url(#3e704a0565)"><g clip-path="url(#5deeda8f80)"><path fill="#3d464d" d="M 96.003906 5.894531 L 182.289062 5.894531 L 182.289062 31.109375 L 96.003906 31.109375 Z M 96.003906 5.894531 " fill-opacity="1" fill-rule="nonzero"/></g></g><g fill="#3d464d" fill-opacity="1"><g transform="translate(4.6875, 28.125)"><g><path d="M 12.5 0.359375 C 10.34375 0.359375 8.398438 -0.101562 6.671875 -1.03125 C 4.953125 -1.957031 3.601562 -3.234375 2.625 -4.859375 C 1.644531 -6.492188 1.15625 -8.328125 1.15625 -10.359375 C 1.15625 -12.390625 1.644531 -14.21875 2.625 -15.84375 C 3.601562 -17.476562 4.953125 -18.757812 6.671875 -19.6875 C 8.398438 -20.613281 10.34375 -21.078125 12.5 -21.078125 C 14.644531 -21.078125 16.578125 -20.613281 18.296875 -19.6875 C 20.015625 -18.757812 21.363281 -17.476562 22.34375 -15.84375 C 23.332031 -14.21875 23.828125 -12.390625 23.828125 -10.359375 C 23.828125 -8.328125 23.332031 -6.492188 22.34375 -4.859375 C 21.363281 -3.234375 20.015625 -1.957031 18.296875 -1.03125 C 16.578125 -0.101562 14.644531 0.359375 12.5 0.359375 Z M 12.5 -3.734375 C 13.71875 -3.734375 14.820312 -4.015625 15.8125 -4.578125 C 16.800781 -5.140625 17.578125 -5.921875 18.140625 -6.921875 C 18.703125 -7.929688 18.984375 -9.078125 18.984375 -10.359375 C 18.984375 -11.640625 18.703125 -12.785156 18.140625 -13.796875 C 17.578125 -14.804688 16.800781 -15.59375 15.8125 -16.15625 C 14.820312 -16.71875 13.71875 -17 12.5 -17 C 11.269531 -17 10.160156 -16.71875 9.171875 -16.15625 C 8.191406 -15.59375 7.421875 -14.804688 6.859375 -13.796875 C 6.296875 -12.785156 6.015625 -11.640625 6.015625 -10.359375 C 6.015625 -9.078125 6.296875 -7.929688 6.859375 -6.921875 C 7.421875 -5.921875 8.191406 -5.140625 9.171875 -4.578125 C 10.160156 -4.015625 11.269531 -3.734375 12.5 -3.734375 Z M 12.5 -3.734375 "/></g></g></g><g fill="#3d464d" fill-opacity="1"><g transform="translate(27.986814, 28.125)"><g><path d="M 11.8125 -16.171875 C 13.789062 -16.171875 15.382812 -15.578125 16.59375 -14.390625 C 17.8125 -13.203125 18.421875 -11.445312 18.421875 -9.125 L 18.421875 0 L 13.796875 0 L 13.796875 -8.40625 C 13.796875 -9.664062 13.519531 -10.609375 12.96875 -11.234375 C 12.414062 -11.859375 11.617188 -12.171875 10.578125 -12.171875 C 9.410156 -12.171875 8.476562 -11.8125 7.78125 -11.09375 C 7.09375 -10.375 6.75 -9.300781 6.75 -7.875 L 6.75 0 L 2.125 0 L 2.125 -15.9375 L 6.546875 -15.9375 L 6.546875 -14.0625 C 7.160156 -14.738281 7.921875 -15.257812 8.828125 -15.625 C 9.734375 -15.988281 10.726562 -16.171875 11.8125 -16.171875 Z M 11.8125 -16.171875 "/></g></g></g><g fill="#3d464d" fill-opacity="1"><g transform="translate(46.756526, 28.125)"><g><path d="M 2.125 -21.96875 L 6.75 -21.96875 L 6.75 0 L 2.125 0 Z M 2.125 -21.96875 "/></g></g></g><g fill="#3d464d" fill-opacity="1"><g transform="translate(53.980203, 28.125)"><g><path d="M 2.125 -15.9375 L 6.75 -15.9375 L 6.75 0 L 2.125 0 Z M 4.4375 -18.15625 C 3.59375 -18.15625 2.90625 -18.398438 2.375 -18.890625 C 1.84375 -19.378906 1.578125 -19.992188 1.578125 -20.734375 C 1.578125 -21.460938 1.84375 -22.070312 2.375 -22.5625 C 2.90625 -23.050781 3.59375 -23.296875 4.4375 -23.296875 C 5.289062 -23.296875 5.984375 -23.054688 6.515625 -22.578125 C 7.046875 -22.109375 7.3125 -21.519531 7.3125 -20.8125 C 7.3125 -20.039062 7.046875 -19.40625 6.515625 -18.90625 C 5.984375 -18.40625 5.289062 -18.15625 4.4375 -18.15625 Z M 4.4375 -18.15625 "/></g></g></g><g fill="#3d464d" fill-opacity="1"><g transform="translate(61.203883, 28.125)"><g><path d="M 11.8125 -16.171875 C 13.789062 -16.171875 15.382812 -15.578125 16.59375 -14.390625 C 17.8125 -13.203125 18.421875 -11.445312 18.421875 -9.125 L 18.421875 0 L 13.796875 0 L 13.796875 -8.40625 C 13.796875 -9.664062 13.519531 -10.609375 12.96875 -11.234375 C 12.414062 -11.859375 11.617188 -12.171875 10.578125 -12.171875 C 9.410156 -12.171875 8.476562 -11.8125 7.78125 -11.09375 C 7.09375 -10.375 6.75 -9.300781 6.75 -7.875 L 6.75 0 L 2.125 0 L 2.125 -15.9375 L 6.546875 -15.9375 L 6.546875 -14.0625 C 7.160156 -14.738281 7.921875 -15.257812 8.828125 -15.625 C 9.734375 -15.988281 10.726562 -16.171875 11.8125 -16.171875 Z M 11.8125 -16.171875 "/></g></g></g><g fill="#3d464d" fill-opacity="1"><g transform="translate(79.973597, 28.125)"><g><path d="M 17.734375 -7.90625 C 17.734375 -7.84375 17.703125 -7.425781 17.640625 -6.65625 L 5.59375 -6.65625 C 5.8125 -5.675781 6.320312 -4.898438 7.125 -4.328125 C 7.9375 -3.753906 8.945312 -3.46875 10.15625 -3.46875 C 10.988281 -3.46875 11.722656 -3.585938 12.359375 -3.828125 C 13.003906 -4.078125 13.601562 -4.46875 14.15625 -5 L 16.609375 -2.34375 C 15.109375 -0.625 12.914062 0.234375 10.03125 0.234375 C 8.238281 0.234375 6.648438 -0.113281 5.265625 -0.8125 C 3.890625 -1.507812 2.828125 -2.476562 2.078125 -3.71875 C 1.328125 -4.96875 0.953125 -6.382812 0.953125 -7.96875 C 0.953125 -9.519531 1.320312 -10.921875 2.0625 -12.171875 C 2.800781 -13.429688 3.816406 -14.410156 5.109375 -15.109375 C 6.398438 -15.816406 7.847656 -16.171875 9.453125 -16.171875 C 11.003906 -16.171875 12.410156 -15.832031 13.671875 -15.15625 C 14.941406 -14.488281 15.9375 -13.523438 16.65625 -12.265625 C 17.375 -11.015625 17.734375 -9.5625 17.734375 -7.90625 Z M 9.46875 -12.671875 C 8.425781 -12.671875 7.550781 -12.375 6.84375 -11.78125 C 6.132812 -11.1875 5.695312 -10.378906 5.53125 -9.359375 L 13.390625 -9.359375 C 13.222656 -10.359375 12.785156 -11.160156 12.078125 -11.765625 C 11.367188 -12.367188 10.5 -12.671875 9.46875 -12.671875 Z M 9.46875 -12.671875 "/></g></g></g><g fill="#ffd333" fill-opacity="1"><g transform="translate(101.195986, 28.125)"><g><path d="M 9.265625 0.359375 C 7.628906 0.359375 6.046875 0.132812 4.515625 -0.3125 C 2.984375 -0.757812 1.753906 -1.335938 0.828125 -2.046875 L 2.453125 -5.65625 C 3.347656 -5 4.40625 -4.472656 5.625 -4.078125 C 6.851562 -3.691406 8.078125 -3.5 9.296875 -3.5 C 10.660156 -3.5 11.664062 -3.695312 12.3125 -4.09375 C 12.96875 -4.5 13.296875 -5.039062 13.296875 -5.71875 C 13.296875 -6.207031 13.101562 -6.613281 12.71875 -6.9375 C 12.332031 -7.269531 11.835938 -7.535156 11.234375 -7.734375 C 10.628906 -7.929688 9.816406 -8.144531 8.796875 -8.375 C 7.210938 -8.75 5.914062 -9.125 4.90625 -9.5 C 3.90625 -9.875 3.046875 -10.472656 2.328125 -11.296875 C 1.609375 -12.128906 1.25 -13.238281 1.25 -14.625 C 1.25 -15.832031 1.570312 -16.921875 2.21875 -17.890625 C 2.875 -18.867188 3.859375 -19.644531 5.171875 -20.21875 C 6.484375 -20.789062 8.085938 -21.078125 9.984375 -21.078125 C 11.304688 -21.078125 12.597656 -20.921875 13.859375 -20.609375 C 15.117188 -20.296875 16.222656 -19.84375 17.171875 -19.25 L 15.6875 -15.609375 C 13.78125 -16.691406 11.867188 -17.234375 9.953125 -17.234375 C 8.609375 -17.234375 7.613281 -17.015625 6.96875 -16.578125 C 6.332031 -16.148438 6.015625 -15.578125 6.015625 -14.859375 C 6.015625 -14.148438 6.382812 -13.625 7.125 -13.28125 C 7.863281 -12.9375 8.992188 -12.597656 10.515625 -12.265625 C 12.085938 -11.890625 13.378906 -11.515625 14.390625 -11.140625 C 15.398438 -10.765625 16.265625 -10.171875 16.984375 -9.359375 C 17.703125 -8.546875 18.0625 -7.445312 18.0625 -6.0625 C 18.0625 -4.882812 17.726562 -3.804688 17.0625 -2.828125 C 16.40625 -1.847656 15.414062 -1.070312 14.09375 -0.5 C 12.769531 0.0703125 11.160156 0.359375 9.265625 0.359375 Z M 9.265625 0.359375 "/></g></g></g><g fill="#ffd333" fill-opacity="1"><g transform="translate(118.396623, 28.125)"><g><path d="M 11.8125 -16.171875 C 13.789062 -16.171875 15.382812 -15.578125 16.59375 -14.390625 C 17.8125 -13.203125 18.421875 -11.445312 18.421875 -9.125 L 18.421875 0 L 13.796875 0 L 13.796875 -8.40625 C 13.796875 -9.664062 13.519531 -10.609375 12.96875 -11.234375 C 12.414062 -11.859375 11.617188 -12.171875 10.578125 -12.171875 C 9.410156 -12.171875 8.476562 -11.8125 7.78125 -11.09375 C 7.09375 -10.375 6.75 -9.300781 6.75 -7.875 L 6.75 0 L 2.125 0 L 2.125 -21.96875 L 6.75 -21.96875 L 6.75 -14.265625 C 7.363281 -14.878906 8.101562 -15.347656 8.96875 -15.671875 C 9.84375 -16.003906 10.789062 -16.171875 11.8125 -16.171875 Z M 11.8125 -16.171875 "/></g></g></g><g fill="#ffd333" fill-opacity="1"><g transform="translate(137.166335, 28.125)"><g><path d="M 9.71875 0.234375 C 8.03125 0.234375 6.519531 -0.113281 5.1875 -0.8125 C 3.863281 -1.507812 2.828125 -2.476562 2.078125 -3.71875 C 1.328125 -4.96875 0.953125 -6.382812 0.953125 -7.96875 C 0.953125 -9.539062 1.328125 -10.945312 2.078125 -12.1875 C 2.828125 -13.4375 3.863281 -14.410156 5.1875 -15.109375 C 6.519531 -15.816406 8.03125 -16.171875 9.71875 -16.171875 C 11.394531 -16.171875 12.894531 -15.816406 14.21875 -15.109375 C 15.539062 -14.410156 16.578125 -13.4375 17.328125 -12.1875 C 18.078125 -10.945312 18.453125 -9.539062 18.453125 -7.96875 C 18.453125 -6.382812 18.078125 -4.96875 17.328125 -3.71875 C 16.578125 -2.476562 15.539062 -1.507812 14.21875 -0.8125 C 12.894531 -0.113281 11.394531 0.234375 9.71875 0.234375 Z M 9.71875 -3.546875 C 10.894531 -3.546875 11.863281 -3.945312 12.625 -4.75 C 13.382812 -5.550781 13.765625 -6.625 13.765625 -7.96875 C 13.765625 -9.3125 13.382812 -10.378906 12.625 -11.171875 C 11.863281 -11.972656 10.894531 -12.375 9.71875 -12.375 C 8.53125 -12.375 7.550781 -11.972656 6.78125 -11.171875 C 6.007812 -10.378906 5.625 -9.3125 5.625 -7.96875 C 5.625 -6.625 6.007812 -5.550781 6.78125 -4.75 C 7.550781 -3.945312 8.53125 -3.546875 9.71875 -3.546875 Z M 9.71875 -3.546875 "/></g></g></g><g fill="#ffd333" fill-opacity="1"><g transform="translate(154.870266, 28.125)"><g><path d="M 11.546875 -16.171875 C 13.023438 -16.171875 14.367188 -15.828125 15.578125 -15.140625 C 16.796875 -14.460938 17.75 -13.503906 18.4375 -12.265625 C 19.132812 -11.035156 19.484375 -9.601562 19.484375 -7.96875 C 19.484375 -6.320312 19.132812 -4.882812 18.4375 -3.65625 C 17.75 -2.425781 16.796875 -1.46875 15.578125 -0.78125 C 14.367188 -0.101562 13.023438 0.234375 11.546875 0.234375 C 9.515625 0.234375 7.914062 -0.40625 6.75 -1.6875 L 6.75 5.75 L 2.125 5.75 L 2.125 -15.9375 L 6.546875 -15.9375 L 6.546875 -14.09375 C 7.691406 -15.476562 9.359375 -16.171875 11.546875 -16.171875 Z M 10.75 -3.546875 C 11.9375 -3.546875 12.910156 -3.945312 13.671875 -4.75 C 14.429688 -5.550781 14.8125 -6.625 14.8125 -7.96875 C 14.8125 -9.3125 14.429688 -10.378906 13.671875 -11.171875 C 12.910156 -11.972656 11.9375 -12.375 10.75 -12.375 C 9.5625 -12.375 8.585938 -11.972656 7.828125 -11.171875 C 7.066406 -10.378906 6.6875 -9.3125 6.6875 -7.96875 C 6.6875 -6.625 7.066406 -5.550781 7.828125 -4.75 C 8.585938 -3.945312 9.5625 -3.546875 10.75 -3.546875 Z M 10.75 -3.546875 "/></g></g></g></svg>